<svg width="24" height="25" viewBox="0 0 24 25" fill="none" xmlns="http://www.w3.org/2000/svg">
<path d="M20.7097 3.94405C20.7097 3.94405 22.6523 3.18655 22.4904 5.02619C22.4365 5.7837 21.9508 8.43495 21.573 11.3027L20.278 19.7975C20.278 19.7975 20.17 21.042 19.1987 21.2584C18.2274 21.4748 16.7704 20.5009 16.5005 20.2845C16.2847 20.1222 12.4534 17.6873 11.1043 16.497C10.7265 16.1723 10.2948 15.523 11.1582 14.7655L16.8244 9.3548C17.4719 8.7055 18.1194 7.1905 15.4213 9.03015L7.86655 14.1704C7.86655 14.1704 7.00315 14.7114 5.3843 14.2245L1.87671 13.1423C1.87671 13.1423 0.581605 12.3307 2.79408 11.5191C8.19035 8.976 14.8278 6.37885 20.7097 3.94405Z" fill="white"/>
</svg>
