<svg width="24" height="25" viewBox="0 0 24 25" fill="none" xmlns="http://www.w3.org/2000/svg">
<path d="M10.6791 9.85964C7.7348 9.71759 5.6882 10.7673 4.53931 13.0089C2.81597 16.3712 4.24025 21.8729 9.98955 21.8729C15.7388 21.8729 15.9052 16.3174 15.9052 15.7354C15.9052 15.3473 15.9052 13.1779 15.9052 9.22694C17.1349 10.0058 18.1716 10.4747 19.0155 10.6335C19.8594 10.7923 20.3959 10.8627 20.625 10.8447V7.60679C19.8444 7.51269 19.1694 7.33334 18.6 7.06874C17.7458 6.67179 16.052 5.57024 16.052 3.95571C16.0532 3.96361 16.0532 3.54714 16.052 2.7063H12.493C12.4824 10.6143 12.4824 14.9573 12.493 15.7354C12.5089 16.9024 11.6035 18.5349 9.7679 18.5349C7.93225 18.5349 7.0269 16.9037 7.0269 15.8516C7.0269 15.2075 7.2481 14.2739 8.16265 13.5825C8.705 13.1726 9.45775 13.0089 10.6791 13.0089C10.6791 12.6311 10.6791 11.5813 10.6791 9.85964Z" stroke="white" stroke-width="1.5" stroke-linejoin="round"/>
</svg>
